PathFileType	4	(X/Y/Z)	C:\Users\WrightLab\Desktop\Jo\P4V123.trc
DataRate	CameraRate	NumFrames	NumMarkers	Units	OrigDataRate	OrigDataStartFrame	OrigNumFrames
100.00	100.00	       63	19	mm	100.00	442	       504
Frame#	Time	Headset_Front			Headset_Back			Headset_Left			Headset_Right			Left_Shoulder			Right_Shoulder			Sternum			C7			Left Elbow			Right Elbow			Left Wrist			Right Wrist			Left ASIS			Right ASIS			S2			Left Knee			Right Knee			Left Ankle			Right Ankle			
		X1	Y1	Z1	X2	Y2	Z2	X3	Y3	Z3	X4	Y4	Z4	X5	Y5	Z5	X6	Y6	Z6	X7	Y7	Z7	X8	Y8	Z8	X9	Y9	Z9	X10	Y10	Z10	X11	Y11	Z11	X12	Y12	Z12	X13	Y13	Z13	X14	Y14	Z14	X15	Y15	Z15	X16	Y16	Z16	X17	Y17	Z17	X18	Y18	Z18	X19	Y19	Z19	

442	4.410																									-486.74112	1159.46277	-1454.51367																									-338.73785	30.40850	-1474.56519	-135.07281	28.36348	-1342.83936	
443	4.420																									-484.88544	1159.51929	-1458.29797																									-335.28387	28.03719	-1484.40405	-135.06212	28.35003	-1342.82202	
444	4.430																									-483.52228	1159.68787	-1461.74402																									-331.84506	28.13656	-1491.18958	-135.28407	28.68488	-1343.50720	
445	4.440																									-482.57849	1160.41907	-1466.29688																									-328.92746	30.00212	-1493.30225	-135.26764	28.69427	-1343.48267	
446	4.450																									-481.91083	1159.94727	-1468.14941																									-325.42712	27.66737	-1500.03503	-135.08122	28.28913	-1342.84680	
447	4.460																									-480.54263	1159.78052	-1471.64600																									-323.75967	27.68967	-1502.10059	-134.26326	28.75329	-1339.53479	
448	4.470																									-479.15283	1159.61755	-1475.06860																									-322.48575	26.88045	-1505.02759	-134.29509	28.74928	-1339.56653	
449	4.480																									-478.31705	1158.77197	-1476.53906																									-321.38483	27.62701	-1508.25977	-134.79033	28.11911	-1342.66418	
450	4.490																									-477.41879	1158.60950	-1479.55042																									-320.37311	27.53440	-1511.54932	-134.91772	28.76517	-1341.78589	
451	4.500																									-475.28964	1158.59167	-1484.18616																									-320.34641	27.75352	-1511.43481	-134.19699	28.77528	-1339.47070	
452	4.510																									-474.42999	1158.54553	-1487.27832																									-320.43005	27.55087	-1511.94116	-134.72340	28.15362	-1342.56445	
453	4.520																									-473.50864	1159.05469	-1491.57385																									-321.19949	27.45924	-1511.03931	-134.68617	28.19536	-1342.51050	
454	4.530																									-472.99048	1158.56885	-1493.68359																									-321.45621	26.56521	-1512.50854	-134.22383	28.74348	-1339.49365	
455	4.540																									-471.85562	1158.31250	-1497.23499																									-321.73630	25.61749	-1514.11890	-134.20705	28.73490	-1339.47559	
456	4.550																									-471.05319	1157.72949	-1499.77136																												-134.23524	28.72596	-1339.50293	
457	4.560																									-470.20883	1157.08057	-1502.43555																												-134.26044	28.68290	-1339.52271	
458	4.570																									-469.95316	1156.46301	-1504.75879																												-134.23303	28.71295	-1339.49890	
459	4.580																									-469.82980	1155.79578	-1507.22717																												-134.29483	28.65944	-1339.55444	
460	4.590																									-469.17896	1155.10181	-1510.15015																												-134.29770	28.64482	-1339.55542	
461	4.600																									-468.76483	1154.38672	-1513.12964																												-134.35214	28.59020	-1339.60327	
462	4.610																									-468.75723	1153.65210	-1515.76160																												-134.23793	28.66199	-1339.49719	
463	4.620																									-468.01447	1153.24817	-1519.71423																												-134.51485	28.51485	-1339.17639	
464	4.630																									-468.05521	1152.55762	-1522.41272																												-134.84349	28.65301	-1338.94226	
465	4.640																									-467.91940	1151.46899	-1524.61121																												-134.23558	28.65440	-1339.49377	
466	4.650																									-467.91949	1150.76563	-1527.22021																												-134.49422	28.52645	-1339.15710	
467	4.660																									-467.95697	1150.14941	-1529.93213																												-134.76497	28.77031	-1339.22644	
468	4.670																									-467.69836	1149.94592	-1533.44373																												-134.36984	28.58225	-1339.62012	
469	4.680																									-467.56406	1149.41809	-1535.56348																												-134.58437	28.49605	-1339.24426	
470	4.690																									-467.01382	1150.36304	-1540.65674																												-135.14023	28.77586	-1339.51111	
471	4.700																									-465.60013	1150.59656	-1545.21594																												-134.73364	28.64533	-1339.90088	
472	4.710																									-465.55530	1150.42285	-1547.62952																												-134.76842	28.65697	-1339.93750	
473	4.720																									-465.52863	1150.28357	-1550.19397																												-135.38254	28.07404	-1343.29175	
474	4.730																									-465.24020	1150.36938	-1553.38330																												-135.64337	29.10221	-1341.42139	
475	4.740																									-465.28754	1149.85913	-1555.58301																												-135.50739	28.08864	-1343.48364	
476	4.750																									-465.04889	1149.67517	-1558.59692																												-135.86748	29.24784	-1342.43323	
477	4.760																									-465.16681	1149.07507	-1560.79761																												-135.76100	28.49868	-1344.22266	
478	4.770																									-465.08514	1148.04578	-1562.81372																												-135.86110	28.44648	-1344.37195	
479	4.780																									-465.31491	1147.42554	-1565.25842																												-136.26709	30.01054	-1342.41699	
480	4.790																									-465.51047	1146.77075	-1567.57837																												-136.88895	30.59089	-1340.18018	
481	4.800																									-465.77319	1146.27637	-1570.05176																												-136.01263	29.93712	-1341.11157	
482	4.810																									-465.59586	1145.69751	-1572.54968																												-136.02612	29.94100	-1341.11865	
483	4.820																									-465.90079	1145.14197	-1574.46570																												-136.51897	30.07398	-1340.55554	
484	4.830																									-466.19189	1144.62805	-1576.12744																												-136.05458	29.97097	-1341.13574	
485	4.840																									-467.00531	1144.24634	-1577.36694																												-136.05695	29.98429	-1341.13831	
486	4.850																									-467.50754	1143.89783	-1578.77551																												-136.75488	30.36144	-1340.62292	
487	4.860																									-468.03436	1143.72815	-1580.25061																												-136.28133	30.23938	-1341.19666	
488	4.870																									-468.53467	1143.59265	-1581.38477																												-137.09485	30.81248	-1340.28186	
489	4.880																									-469.14249	1143.54443	-1582.49963																												-136.26988	31.02054	-1340.30042	
490	4.890																									-470.54114	1144.09583	-1583.45093																												-136.30275	30.30598	-1341.21411	
491	4.900																									-471.57062	1143.59119	-1583.15308																												-136.64494	30.56347	-1341.22009	
492	4.910																									-472.27438	1143.47412	-1583.75598																												-136.16017	30.45739	-1341.79004	
493	4.920																									-473.43945	1143.42554	-1583.95593																												-136.67111	30.59157	-1341.23584	
494	4.930																									-474.32239	1143.48096	-1584.86792																												-136.02870	31.40376	-1340.59094	
495	4.940																									-475.64868	1143.61694	-1585.76636																												-137.76765	30.30117	-1341.80396	
496	4.950																									-476.98840	1144.56995	-1587.94153																												-137.78781	30.31023	-1341.81482	
497	4.960																									-477.43692	1144.27808	-1587.93384																												-137.47659	30.30325	-1342.24573	
498	4.970																									-478.91022	1144.28833	-1589.01306																												-137.78630	30.45838	-1342.27612	
499	4.980																									-480.03473	1144.48767	-1589.81726																												-137.92625	30.14149	-1341.96204	
500	4.990																									-480.85861	1145.44751	-1592.71802																												-138.35831	30.62417	-1341.87036	
501	5.000																									-481.59174	1145.52673	-1594.08313																												-138.06877	30.59897	-1342.30994	
502	5.010																									-482.33188	1146.36121	-1596.83557																												-138.04784	30.61683	-1342.30151	
503	5.020																									-482.83554	1146.22668	-1597.77100																												-138.38940	30.62970	-1341.88611	
504	5.030																									-483.73615	1146.18689	-1598.71753																												-138.39880	30.63906	-1341.89172	
